<svg width="73" height="85" viewBox="0 0 73 85" fill="none" xmlns="http://www.w3.org/2000/svg">
<path d="M24.5674 8.43896C27.0283 3.76997 31.3596 0.945312 36.0002 0.945312C40.6408 0.945312 44.9721 3.76997 47.433 8.43896L52.8612 18.6908L56.658 16.0988C57.8393 15.2846 59.3158 15.4009 60.3986 16.3812C61.4815 17.3615 61.9596 19.0231 61.608 20.585L58.3174 35.107C57.8393 37.2338 55.983 38.4966 54.183 37.9317L41.8924 34.0436C40.5705 33.6282 39.6002 32.3156 39.4174 30.7205C39.2346 29.1254 39.8955 27.5469 41.0768 26.7494L45.0705 24.0244L39.7971 14.0717C38.9815 12.5264 37.5471 11.5793 36.0002 11.5793C34.4533 11.5793 33.019 12.5264 32.2033 14.0717L29.7424 18.724C28.4487 21.1831 25.7205 21.9641 23.6112 20.4687C21.4596 18.94 20.7705 15.6169 22.1065 13.0913L24.5674 8.43896ZM60.3986 42.8001C62.508 41.3046 65.2361 42.0856 66.5299 44.5447L69.9612 51.0414C71.283 53.5504 71.9861 56.4249 72.0143 59.3824C72.0565 68.2053 66.0096 75.3999 58.5424 75.3999L45.0002 75.3833V80.7003C45.0002 82.312 44.1846 83.7742 42.919 84.3889C41.6533 85.0037 40.2049 84.6714 39.2346 83.5249L30.2346 72.8909C28.9127 71.3291 28.9127 68.8035 30.2346 67.2582L39.2346 56.6242C40.2049 55.4778 41.6533 55.1455 42.919 55.7602C44.1846 56.375 45.0002 57.8372 45.0002 59.4489V64.7659H58.5283C61.0033 64.7659 63.0143 62.3733 63.0002 59.4489C63.0002 58.4686 62.7612 57.5049 62.3252 56.6741L58.894 50.1774C57.558 47.6518 58.233 44.3287 60.3986 42.8001ZM9.12678 37.6492L5.06272 34.8744C3.88147 34.0602 3.22053 32.4984 3.40334 30.9033C3.58616 29.3082 4.55647 27.9955 5.87834 27.5801L18.169 23.6921C19.969 23.1272 21.8252 24.3899 22.3033 26.5167L25.594 41.0222C25.9455 42.5841 25.4674 44.229 24.3846 45.2259C23.3018 46.2229 21.8252 46.3226 20.644 45.5084L16.9174 42.9662L9.67522 56.6575C9.23928 57.4883 9.00022 58.452 9.00022 59.4323C8.98616 62.3566 10.9971 64.7493 13.4721 64.7493H18.0002C20.4893 64.7493 22.5002 67.1253 22.5002 70.0663C22.5002 73.0072 20.4893 75.3833 18.0002 75.3833H13.4721C6.00491 75.3833 -0.0419681 68.2053 0.000219414 59.3658C0.0142819 56.4082 0.717407 53.5337 2.05334 51.0248L9.12678 37.6492Z" fill="#F9D183"/>
</svg>
