<svg width="82" height="86" viewBox="0 0 82 86" fill="none" xmlns="http://www.w3.org/2000/svg">
<path d="M43.5625 12.9291C30.9742 12.9291 20.3238 22.7069 16.7043 36.187C22.0855 32.9594 28.1555 31.1557 34.5938 31.1557H48.6875C50.0969 31.1557 51.25 32.5227 51.25 34.1935C51.25 35.8643 50.0969 37.2312 48.6875 37.2312H46.125H34.5938C31.9352 37.2312 29.3566 37.592 26.8582 38.2565C22.7102 39.3767 18.8664 41.3702 15.423 44.0852C6.13398 51.4328 0 63.9827 0 78.2412V81.279C0 83.8041 1.71367 85.8356 3.84375 85.8356C5.97383 85.8356 7.6875 83.8041 7.6875 81.279V78.2412C7.6875 68.995 11.0027 60.6791 16.3039 54.8503C19.475 69.1848 30.4777 79.7601 43.5625 79.7601H43.7227C64.8793 79.6272 82 54.9073 82 24.4346C82 16.3466 80.7988 8.65719 78.6207 1.72727C78.2043 0.417229 76.5867 0.474187 76.0262 1.70828C73.0152 8.39139 67.0574 12.9291 60.2188 12.9291H43.5625Z" fill="#F9D183"/>
</svg>
