<svg width="54" height="86" viewBox="0 0 54 86" fill="none" xmlns="http://www.w3.org/2000/svg">
<path d="M30.3328 83.7088C37.5469 73.0416 54 47.1877 54 32.6657C54 15.0531 41.9062 0.763672 27 0.763672C12.0938 0.763672 0 15.0531 0 32.6657C0 47.1877 16.4531 73.0416 23.6672 83.7088C25.3969 86.251 28.6031 86.251 30.3328 83.7088ZM27 22.0317C29.3869 22.0317 31.6761 23.152 33.364 25.1463C35.0518 27.1405 36 29.8453 36 32.6657C36 35.486 35.0518 38.1908 33.364 40.185C31.6761 42.1793 29.3869 43.2997 27 43.2997C24.6131 43.2997 22.3239 42.1793 20.636 40.185C18.9482 38.1908 18 35.486 18 32.6657C18 29.8453 18.9482 27.1405 20.636 25.1463C22.3239 23.152 24.6131 22.0317 27 22.0317Z" fill="#F9D183"/>
</svg>
